<svg xmlns="http://www.w3.org/2000/svg" version="1.1" xmlns:xlink="http://www.w3.org/1999/xlink" xmlns:svgjs="http://svgjs.dev/svgjs" width="2000" height="2000" viewBox="0 0 2000 2000"><g transform="matrix(1,0,0,1,0,0)"><svg viewBox="0 0 280 280" data-background-color="#0a1627" preserveAspectRatio="xMidYMid meet" height="2000" width="2000" xmlns="http://www.w3.org/2000/svg" xmlns:xlink="http://www.w3.org/1999/xlink"><g id="tight-bounds" transform="matrix(1,0,0,1,0,0)"><svg viewBox="0 0 280 280" height="280" width="280"><g><svg viewBox="0 0 280 280" height="280" width="280"><g><svg viewBox="0 0 280 280" height="280" width="280"><g id="textblocktransform"><svg viewBox="0 0 280 280" height="280" width="280" id="textblock"><g><svg viewBox="0 0 280 280" height="280" width="280"><g transform="matrix(1,0,0,1,53.379419304647925,53.379419304647925)"><svg viewBox="0 0 173.24116139070415 173.24116139070415" height="173.24116139070415" width="173.24116139070415"><g id="icon-0"><circle r="87" cx="86.62058069535207" cy="86.62058069535207" fill="#c1c1c1" data-fill-palette-color="accent"></circle><svg xmlns="http://www.w3.org/2000/svg" xmlns:xlink="http://www.w3.org/1999/xlink" version="1.1" x="25.98617420860562" y="25.98617420860562" viewBox="9.547 3.29 80.906 93.41999999999999" enable-background="new 0 0 100 100" xml:space="preserve" height="121.26881297349291" width="121.26881297349291" class="icon-xg-0" data-fill-palette-color="quaternary" id="xg-0"><g fill="#0a1627" data-fill-palette-color="quaternary"><path d="M31.112 39.094v21.812L49.999 71.81l18.89-10.903V39.094l-18.89-10.905L31.112 39.094zM60.925 56.308l-10.926 6.307-10.924-6.307V43.692l10.924-6.308 10.926 6.308V56.308z" fill="#0a1627" data-fill-palette-color="quaternary"></path><path d="M49.999 3.29L9.547 26.646v46.709L49.999 96.71l40.454-23.355V26.646L49.999 3.29zM82.19 68.584L49.999 87.169 17.811 68.584v-37.17l32.188-18.585L82.19 31.414V68.584z" fill="#0a1627" data-fill-palette-color="quaternary"></path><path d="M20.368 32.89v34.218l29.631 17.108 29.634-17.108V32.89L49.999 15.782 20.368 32.89zM71.446 62.383l-21.447 12.38-21.444-12.38V37.618l21.444-12.382 21.447 12.382V62.383z" fill="#0a1627" data-fill-palette-color="quaternary"></path></g></svg></g></svg></g><g id="text-0"><path d="M25.537 110.416v0c0.145 0.547 0.112 1.093-0.099 1.636-0.213 0.55-0.526 0.935-0.938 1.154-0.413 0.22-0.803 0.258-1.172 0.115-0.369-0.143-0.618-0.307-0.747-0.49v0c0.331-0.259 0.592-0.634 0.782-1.126 0.188-0.485 0.263-0.88 0.225-1.185-0.034-0.296-0.122-0.606-0.265-0.928v0l-6.335-5.281-1.058-0.812c-0.316-0.241-0.625-0.421-0.93-0.539v0c-1.048-0.406-1.907-0.167-2.578 0.72v0c0.004-1.048-0.123-1.833-0.38-2.358v0c-0.411-0.822-1.072-1.602-1.983-2.342v0l-5.647-4.378c-0.641 0.176-1.059 0.516-1.255 1.021-0.198 0.511-0.271 1.026-0.22 1.544v0c-0.252 0.036-0.508 0.004-0.766-0.096-0.259-0.1-0.483-0.251-0.673-0.451-0.19-0.2-0.332-0.43-0.425-0.689v0c-0.198-0.583-0.142-1.275 0.169-2.078 0.314-0.809 0.823-1.403 1.529-1.784v0c-0.262-0.764-0.226-1.576 0.108-2.436 0.334-0.86 0.828-1.454 1.482-1.781v0c-0.173-0.915-0.112-1.755 0.184-2.518 0.296-0.763 0.668-1.3 1.115-1.61 0.454-0.308 0.93-0.365 1.429-0.172v0c0.226 0.088 0.399 0.237 0.519 0.447v0c-0.297 0.19-0.514 0.463-0.653 0.819v0c-0.298 0.77 0.031 1.474 0.989 2.113v0l7.931 0.53c1.001 0.068 1.961-0.356 2.882-1.271v0c0.263-0.255 0.515-0.522 0.757-0.8v0c-0.071 1.297 0.275 2.093 1.038 2.389v0c0.291 0.113 0.564 0.167 0.819 0.161v0l10.142 0.126c0.726-0.299 1.191-0.71 1.393-1.234 0.201-0.517 0.256-0.957 0.166-1.32v0c0.147-0.092 0.347-0.089 0.599 0.009 0.252 0.098 0.47 0.227 0.654 0.387 0.181 0.167 0.318 0.369 0.412 0.607v0c0.206 0.504 0.172 1.112-0.104 1.823-0.278 0.718-0.718 1.266-1.318 1.644v0c0.161 0.755 0.097 1.507-0.195 2.257-0.293 0.757-0.736 1.333-1.328 1.728v0c0.181 0.665 0.135 1.351-0.139 2.056-0.273 0.705-0.648 1.23-1.123 1.574-0.472 0.353-0.983 0.434-1.534 0.242v0c-0.323-0.125-0.503-0.266-0.54-0.421v0c0.323-0.239 0.548-0.521 0.673-0.844v0c0.263-0.679 0.31-1.212 0.14-1.598v0l-4.927-0.392-3.63 9.363 3.379 2.627c0.917-0.195 1.505-0.629 1.766-1.302 0.261-0.673 0.356-1.216 0.286-1.63v0c0.257-0.049 0.57-0.002 0.939 0.141 0.362 0.14 0.609 0.444 0.74 0.912 0.134 0.461 0.092 0.973-0.126 1.536-0.221 0.569-0.568 1.034-1.043 1.392v0c0.131 0.527 0.092 1.059-0.116 1.596-0.208 0.537-0.541 0.936-1 1.197zM18.644 102.342l3.085-7.957-14.899-1.155zM24.38 92.645l2.872 0.076c0.08-0.207-0.109-0.4-0.568-0.578v0c-0.809-0.314-1.639-0.494-2.491-0.542v0l-2.284-0.126c-1.705-0.133-2.751-0.274-3.139-0.425v0c-0.652-0.238-0.97-0.685-0.954-1.34v0c-0.47 0.733-0.906 1.118-1.307 1.156v0c-0.168 0.031-0.305 0.057-0.409 0.076-0.098 0.022-0.212 0.037-0.342 0.046-0.13 0.009-0.296 0.015-0.498 0.019-0.2-0.003-0.484-0.009-0.853-0.018v0l-3.648-0.176c-0.906-0.061-1.663 0.077-2.271 0.414v0c-0.187 0.099-0.314 0.206-0.381 0.321v0c3.086 0.311 5.072 0.497 5.957 0.557v0c5.79 0.325 9.228 0.505 10.316 0.54zM30.911 88.235l-0.118-0.012z" fill="#fe0039" data-fill-palette-color="primary"></path><path d="M87.981 34.404v0c-0.37 0.586-0.887 1.019-1.552 1.301-0.665 0.281-1.223 0.34-1.676 0.177-0.45-0.156-0.733-0.372-0.85-0.646v0c-0.159-0.377-0.205-0.708-0.137-0.993v0c0.333 0.093 0.694 0.057 1.084-0.108v0c0.658-0.278 0.969-0.862 0.933-1.75v0l-2.217-5.243c-0.213-0.505-0.47-0.826-0.769-0.963v0c-0.471-0.223-1.23-0.361-2.277-0.416v0c0.645-0.702 1.03-1.207 1.155-1.516v0c0.218-0.536 0.212-1.076-0.018-1.62v0l-4.093-9.681c-0.548-1.297-1.353-1.722-2.413-1.273v0c-0.39 0.165-0.669 0.396-0.837 0.693v0c-0.249-0.143-0.423-0.333-0.524-0.57-0.1-0.236-0.134-0.486-0.101-0.748 0.03-0.269 0.13-0.548 0.3-0.839v0c0.375-0.61 0.971-1.088 1.789-1.434 0.824-0.349 1.485-0.568 1.982-0.657v0c0.291-1.057 0.83-1.752 1.616-2.084v0c1.176-0.497 2.024-0.129 2.546 1.104v0l6.05 14.311 3.008-6.65c0.424-1.098 0.565-1.817 0.422-2.155-0.146-0.345-0.436-0.426-0.871-0.242-0.435 0.184-0.794 0.464-1.08 0.84v0c-0.208-0.153-0.381-0.393-0.518-0.718-0.135-0.32-0.099-0.707 0.107-1.164 0.215-0.453 0.636-0.811 1.262-1.076 0.626-0.265 1.261-0.304 1.906-0.117v0c0.283-0.579 0.686-0.979 1.209-1.2 0.524-0.222 1.043-0.26 1.556-0.116v0c0.26-0.472 0.652-0.818 1.176-1.039 0.524-0.222 1.017-0.268 1.478-0.139 0.468 0.126 0.797 0.416 0.989 0.87v0c0.178 0.422 0.244 0.737 0.196 0.945v0c-0.436-0.177-0.881-0.17-1.335 0.022-0.447 0.189-0.785 0.407-1.011 0.654-0.224 0.253-0.448 0.57-0.672 0.95-0.227 0.39-0.464 0.844-0.712 1.363v0l-1.795 3.663 9.54 8.056c0.609 0.549 1.105 0.93 1.49 1.144 0.378 0.217 0.759 0.244 1.142 0.082 0.383-0.162 0.658-0.395 0.823-0.698v0c0.252 0.15 0.446 0.388 0.584 0.713 0.138 0.326 0.106 0.705-0.096 1.137-0.199 0.438-0.65 0.806-1.352 1.103-0.709 0.3-1.475 0.394-2.299 0.282v0c-0.372 0.617-0.881 1.062-1.526 1.335-0.645 0.273-1.281 0.338-1.906 0.195v0c-0.295 0.531-0.721 0.915-1.276 1.15-0.55 0.232-1.047 0.285-1.493 0.157-0.446-0.128-0.755-0.396-0.928-0.806-0.176-0.415-0.208-0.733-0.098-0.952v0c0.593 0.156 1.062 0.026 1.405-0.391v0c0.127-0.144 0.206-0.358 0.237-0.643v0l-6.954-6.347-1.351 2.763 2.443 5.78c0.452 0.464 0.928 0.591 1.426 0.38v0c0.262-0.111 0.481-0.324 0.657-0.639v0c0.235 0.074 0.441 0.322 0.619 0.744 0.176 0.415 0.153 0.824-0.069 1.227-0.222 0.402-0.61 0.721-1.166 0.956-0.556 0.235-1.131 0.275-1.724 0.119v0c-0.321 0.542-0.8 0.949-1.439 1.218-0.639 0.27-1.304 0.337-1.995 0.2zM85.464 24.441l-0.434-1.025-0.941-2.28-1.419-3.355c-0.894-2.115-1.455-3.335-1.683-3.661v0c-0.452-0.623-0.946-0.982-1.484-1.078v0l2.435 5.76c0.997 2.358 1.527 3.682 1.589 3.972 0.062 0.29 0.1 0.504 0.113 0.642v0c0.049 0.401-0.215 0.855-0.791 1.362v0c0.786-0.046 1.293 0.075 1.521 0.363v0c0.373 0.49 0.965 1.694 1.775 3.611v0l0.47 1.112c0.436-0.644 0.319-1.803-0.352-3.478v0l-0.434-1.026c-0.133-0.35-0.255-0.657-0.365-0.919zM91.5 19.799l5.97 5.487c0.066-0.254 0.029-0.547-0.112-0.879-0.138-0.326-0.288-0.609-0.45-0.85-0.162-0.24-0.337-0.475-0.524-0.705v0c-0.325-0.36-0.755-0.769-1.288-1.229v0l-3.111-2.842z" fill="#fe0039" data-fill-palette-color="primary"></path><path d="M192.874 6.698v0c-0.591-0.221-1.104-0.594-1.537-1.119-0.436-0.518-0.7-1.091-0.792-1.717v0c-0.113-0.649-0.381-1.212-0.803-1.688v0c-0.133-0.139-0.286-0.296-0.457-0.471v0l0.729-0.139c0.69-0.142 1.26-0.411 1.712-0.805 0.453-0.401 1.003-0.644 1.649-0.728 0.637-0.081 1.271-0.003 1.902 0.232v0c1.3 0.485 2.037 1.379 2.209 2.68v0c0.121 0.867 0.529 1.627 1.227 2.28v0c-0.214 0.038-0.422 0.068-0.623 0.089-0.198 0.015-0.391 0.046-0.579 0.095v0c-0.419 0.11-0.846 0.343-1.283 0.699-0.427 0.351-0.943 0.592-1.547 0.722-0.613 0.134-1.215 0.091-1.807-0.13zM192.745 4.217c-0.019-0.148-0.02-0.315-0.002-0.501 0.022-0.177 0.113-0.48 0.273-0.909 0.16-0.429 0.585-0.892 1.274-1.39v0c-0.429-0.16-0.76-0.195-0.994-0.105-0.234 0.09-0.413 0.175-0.539 0.254-0.126 0.079-0.242 0.162-0.348 0.248-0.106 0.086-0.229 0.177-0.368 0.274v0c-0.337 0.229-0.59 0.35-0.757 0.361v0c0.15 0.174 0.26 0.404 0.331 0.69 0.071 0.286 0.166 0.588 0.284 0.906v0c0.169 0.5 0.51 0.846 1.023 1.038v0c-0.025-0.15-0.053-0.294-0.083-0.432-0.037-0.14-0.068-0.285-0.094-0.434zM182.62 28.841v0c-0.671 0.172-1.345 0.131-2.021-0.122-0.676-0.252-1.123-0.593-1.34-1.022-0.22-0.423-0.278-0.774-0.174-1.053v0c0.143-0.383 0.337-0.655 0.583-0.816v0c0.178 0.296 0.518 0.538 1.018 0.724 0.5 0.187 1.051 0.022 1.651-0.494v0l2.071-5.548c0.192-0.513 0.226-0.923 0.103-1.228v0c-0.207-0.477-0.666-1.093-1.377-1.847v0c0.951-0.067 1.578-0.17 1.881-0.308v0c0.527-0.24 0.893-0.637 1.1-1.189v0l0.95-2.545c0.366-0.981 0.231-1.639-0.408-1.974v0c-0.194-0.095-0.441-0.198-0.739-0.309-0.305-0.114-0.621-0.121-0.948-0.021v0c-0.08-0.282-0.076-0.539 0.011-0.773 0.09-0.24 0.251-0.484 0.484-0.73 0.235-0.253 0.529-0.465 0.882-0.638v0c0.837-0.398 1.649-0.451 2.436-0.157 0.786 0.294 1.446 0.699 1.978 1.217v0c0.849-0.527 1.637-0.655 2.365-0.384v0c1.196 0.446 1.561 1.294 1.095 2.542v0l-2.227 5.966c-0.206 0.552-0.235 0.997-0.087 1.334v0c0.224 0.491 0.673 1.073 1.347 1.747v0c-1.025 0.106-1.689 0.229-1.992 0.368v0c-0.458 0.236-0.783 0.611-0.975 1.124v0l-2.09 5.596c0.153 0.761 0.473 1.232 0.961 1.414 0.481 0.18 0.889 0.217 1.224 0.113v0c0.08 0.282 0.058 0.588-0.065 0.92-0.124 0.331-0.407 0.585-0.851 0.76-0.446 0.182-1 0.149-1.662-0.099-0.656-0.245-1.202-0.66-1.636-1.244v0c-0.613 0.193-1.254 0.165-1.923-0.085-0.676-0.252-1.218-0.666-1.625-1.24zM187.21 21.157c0.152-0.388 0.278-0.715 0.377-0.981 0.106-0.264 0.189-0.477 0.25-0.64v0l0.179-0.478c0.063-0.169 0.144-0.394 0.241-0.676 0.104-0.279 0.216-0.589 0.336-0.93 0.117-0.334 0.23-0.666 0.338-0.996v0c0.253-0.816 0.401-1.391 0.444-1.723v0c0.113-0.72 0.019-1.281-0.283-1.683v0l-0.422 1.131c-0.73 1.956-1.202 3.091-1.415 3.404-0.217 0.304-0.452 0.505-0.703 0.604-0.252 0.099-0.59 0.143-1.016 0.132v0c0.606 0.5 0.893 0.941 0.862 1.322v0c-0.072 0.61-0.473 1.893-1.204 3.849v0l-0.422 1.131c0.662-0.146 1.23-0.744 1.704-1.797v0c0.335-0.719 0.58-1.276 0.734-1.669z" fill="#fe0039" data-fill-palette-color="primary"></path><path d="M245.765 82.854v0c-0.588-0.366-1.028-0.887-1.318-1.563-0.288-0.669-0.34-1.221-0.157-1.655 0.183-0.434 0.418-0.713 0.705-0.836v0c0.376-0.162 0.676-0.219 0.9-0.172v0c-0.091 0.334-0.052 0.695 0.115 1.084v0c0.313 0.726 0.869 1.046 1.67 0.958v0l5.315-2.288c0.503-0.217 0.82-0.481 0.95-0.794v0c0.225-0.459 0.363-1.21 0.413-2.251v0c0.703 0.634 1.21 1.012 1.52 1.135v0c0.538 0.214 1.078 0.205 1.619-0.028v0l2.495-1.074c0.962-0.414 1.344-0.967 1.144-1.659v0c-0.066-0.206-0.162-0.455-0.288-0.749-0.126-0.293-0.34-0.526-0.641-0.698v0c0.148-0.253 0.337-0.428 0.566-0.527 0.236-0.102 0.523-0.153 0.862-0.156 0.345-0.005 0.699 0.054 1.062 0.177v0c0.872 0.342 1.479 0.908 1.819 1.699 0.34 0.79 0.498 1.5 0.475 2.129v0c0.97 0.323 1.608 0.841 1.916 1.555v0c0.505 1.173 0.145 2.022-1.079 2.549v0l-1.423 0.59c1.935 0.3 3.51 1.197 4.727 2.689v0c0.401 0.492 0.729 1.035 0.984 1.628v0c0.576 1.338 0.733 2.589 0.471 3.751-0.269 1.166-0.915 2.199-1.94 3.101v0c2.126 0.097 3.874 0.98 5.242 2.65v0c0.447 0.548 0.841 1.217 1.181 2.006 0.34 0.79 0.511 1.6 0.514 2.431 0.002 0.83-0.17 1.606-0.516 2.329v0c-0.735 1.487-2.125 2.671-4.17 3.551v0l-1.168 0.446c-0.542 0.233-0.881 0.523-1.019 0.869v0c-0.2 0.501-0.31 1.228-0.33 2.182v0c-0.794-0.686-1.349-1.081-1.667-1.186v0c-0.488-0.168-0.983-0.143-1.486 0.073v0l-5.315 2.288c-0.614 0.521-0.765 1.145-0.452 1.871v0c0.118 0.274 0.329 0.493 0.634 0.656v0c-0.065 0.111-0.122 0.226-0.169 0.345-0.044 0.125-0.21 0.249-0.497 0.373-0.287 0.123-0.652 0.099-1.096-0.072-0.441-0.165-0.802-0.573-1.081-1.223-0.283-0.656-0.362-1.34-0.237-2.051v0c-0.585-0.36-1.014-0.855-1.286-1.486-0.272-0.631-0.337-1.256-0.195-1.876v0c-0.536-0.298-0.924-0.724-1.163-1.278-0.236-0.548-0.282-1.049-0.137-1.505 0.147-0.448 0.485-0.786 1.013-1.014v0c0.255-0.11 0.491-0.113 0.71-0.01v0c-0.091 0.349-0.081 0.654 0.031 0.915v0c0.217 0.503 0.649 0.744 1.297 0.722v0l10.161-4.374c2.67-1.149 3.587-2.696 2.75-4.639v0c-0.241-0.561-0.801-0.966-1.679-1.215v0c-0.861-0.264-1.782-0.279-2.761-0.046v0l-10.903 4.625c-0.461 0.455-0.583 0.935-0.367 1.438v0c0.112 0.261 0.327 0.479 0.644 0.652v0c-0.072 0.235-0.306 0.438-0.702 0.608-0.389 0.167-0.798 0.147-1.227-0.061-0.429-0.208-0.763-0.589-1.002-1.143-0.241-0.561-0.285-1.135-0.13-1.723v0c-0.555-0.343-0.966-0.823-1.232-1.441-0.266-0.618-0.33-1.24-0.192-1.867v0c-0.536-0.298-0.922-0.721-1.158-1.268-0.239-0.554-0.286-1.059-0.141-1.514 0.147-0.448 0.485-0.786 1.013-1.014v0c0.255-0.11 0.493-0.11 0.714-0.002v0c-0.091 0.349-0.081 0.654 0.031 0.916v0c0.214 0.497 0.645 0.735 1.293 0.712v0l10.161-4.373c2.122-0.913 3.168-1.976 3.137-3.186v0c-0.009-0.389-0.1-0.784-0.272-1.186v0c-0.326-0.758-0.937-1.273-1.832-1.545v0c-0.843-0.256-1.76-0.255-2.751 0.005v0l-10.871 4.646c-0.464 0.449-0.587 0.925-0.371 1.428v0c0.112 0.261 0.327 0.479 0.643 0.653v0c-0.084 0.278-0.318 0.499-0.699 0.663-0.376 0.162-0.781 0.132-1.217-0.088-0.438-0.227-0.777-0.621-1.018-1.182-0.241-0.561-0.29-1.129-0.145-1.705v0c-0.526-0.31-0.924-0.777-1.193-1.401-0.272-0.631-0.34-1.289-0.204-1.974zM271.196 98.793v0c-0.68 0.701-2.225 1.57-4.633 2.606v0l-6.491 2.794c0.454 0.477 1.331 0.469 2.631-0.022v0c1.305-0.479 2.448-0.929 3.429-1.352 0.988-0.425 1.797-0.808 2.429-1.147 0.632-0.34 1.143-0.67 1.534-0.989v0c0.701-0.566 1.068-1.196 1.101-1.89zM266.312 87.446v0c-0.683 0.694-2.229 1.56-4.638 2.597v0l-6.49 2.794c0.454 0.477 1.331 0.469 2.63-0.022v0c1.305-0.479 2.448-0.929 3.429-1.351 0.988-0.425 1.797-0.808 2.43-1.148 0.632-0.34 1.143-0.67 1.534-0.989v0c0.701-0.566 1.069-1.193 1.105-1.881zM251.405 81.004l-1.109 0.477c0.568 0.39 1.409 0.387 2.522-0.009v0c0.835-0.307 1.577-0.6 2.228-0.88v0l2.16-0.93c1.682-0.724 2.743-1.234 3.183-1.528v0c0.747-0.51 1.165-1.023 1.253-1.537v0l-1.109 0.477c-1.918 0.826-3.064 1.27-3.437 1.333-0.367 0.06-0.678 0.031-0.932-0.086-0.252-0.111-0.516-0.322-0.794-0.633v0c0.051 0.786-0.066 1.294-0.353 1.523v0c-0.49 0.37-1.695 0.967-3.612 1.793z" fill="#fe0039" data-fill-palette-color="primary"></path><path d="M6.756 142.656c0-1.988 1.612-3.6 3.6-3.6 1.988 0 3.6 1.612 3.601 3.6 0 1.988-1.612 3.6-3.601 3.601-1.988 0-3.6-1.612-3.6-3.601z" fill="#fe0039" data-fill-palette-color="primary"></path><path d="M269.01 142.656c0-1.988 1.612-3.6 3.601-3.6 1.988 0 3.6 1.612 3.6 3.6 0 1.988-1.612 3.6-3.6 3.601-1.988 0-3.6-1.612-3.601-3.601z" fill="#fe0039" data-fill-palette-color="primary"></path></g><g id="text-1"><path d="M4.683 183.282v0c-0.511-0.327-0.884-0.787-1.12-1.38-0.233-0.587-0.269-1.117-0.108-1.592 0.162-0.475 0.439-0.791 0.833-0.947 0.4-0.159 0.719-0.211 0.957-0.157v0c-0.072 0.439-0.002 0.923 0.208 1.451 0.21 0.529 0.439 0.897 0.686 1.105 0.25 0.214 0.549 0.394 0.897 0.539v0l8.873-0.473 1.433-0.144c0.433-0.038 0.811-0.121 1.132-0.25v0c1.128-0.449 1.634-1.27 1.518-2.463v0c0.757 0.834 1.435 1.363 2.032 1.589v0c0.923 0.349 2.014 0.483 3.273 0.4v0l7.677-0.692c0.379-0.606 0.459-1.183 0.241-1.731-0.215-0.541-0.537-1.003-0.966-1.386v0c0.177-0.212 0.404-0.374 0.681-0.483 0.277-0.11 0.566-0.154 0.866-0.132 0.291 0.019 0.571 0.094 0.84 0.226v0c0.589 0.318 1.056 0.909 1.4 1.772 0.346 0.87 0.379 1.712 0.098 2.526v0c0.768 0.411 1.336 1.077 1.703 1.999 0.369 0.928 0.414 1.762 0.133 2.501v0c0.812 0.595 1.381 1.302 1.706 2.121 0.326 0.819 0.42 1.516 0.284 2.094-0.127 0.581-0.455 0.976-0.983 1.186v0c-0.251 0.1-0.501 0.11-0.75 0.03v0c0.1-0.368 0.074-0.743-0.078-1.123v0c-0.331-0.832-1.11-1.149-2.338-0.951v0l-6.654 5.403c-0.833 0.683-1.282 1.723-1.344 3.122v0c-0.015 0.394-0.014 0.79 0.001 1.187v0c-0.905-1.074-1.767-1.447-2.585-1.122v0c-0.309 0.123-0.561 0.279-0.755 0.469v0l-8.112 7.338c-0.349 0.774-0.414 1.438-0.193 1.992 0.223 0.561 0.499 0.955 0.829 1.182v0c-0.043 0.174-0.2 0.315-0.47 0.423-0.277 0.11-0.545 0.168-0.805 0.174-0.268 0.002-0.526-0.056-0.774-0.173v0c-0.524-0.247-0.938-0.754-1.244-1.521-0.308-0.774-0.365-1.527-0.172-2.262v0c-0.676-0.478-1.175-1.123-1.498-1.935-0.323-0.812-0.397-1.589-0.222-2.331v0c-0.629-0.399-1.094-0.976-1.394-1.73-0.3-0.754-0.391-1.442-0.273-2.064 0.118-0.622 0.462-1.061 1.033-1.318v0c0.348-0.139 0.591-0.157 0.728-0.055v0c-0.073 0.417-0.04 0.8 0.099 1.148v0c0.29 0.728 0.642 1.182 1.056 1.36v0l4.177-3.297-4.002-10.056-4.598 0.408c-0.577 0.82-0.722 1.59-0.435 2.312 0.29 0.728 0.613 1.231 0.969 1.507v0c-0.172 0.225-0.454 0.416-0.847 0.573-0.387 0.154-0.802 0.095-1.246-0.177-0.441-0.265-0.784-0.704-1.028-1.316-0.241-0.606-0.308-1.225-0.202-1.857v0c-0.486-0.322-0.844-0.769-1.072-1.343-0.231-0.58-0.263-1.139-0.095-1.676zM16.047 184.595l3.402 8.548 12.614-10.015zM18.633 196.469l-2.323 2.045c0.087 0.219 0.376 0.231 0.866 0.036v0c0.87-0.346 1.663-0.811 2.38-1.395v0l1.894-1.571c1.44-1.148 2.369-1.805 2.788-1.972v0c0.691-0.29 1.269-0.169 1.735 0.362v0c-0.165-0.92-0.104-1.546 0.183-1.876v0c0.112-0.149 0.203-0.268 0.273-0.355 0.061-0.091 0.138-0.189 0.231-0.293 0.102-0.1 0.231-0.226 0.387-0.378 0.152-0.143 0.377-0.348 0.674-0.616v0l3.023-2.536c0.756-0.614 1.253-1.279 1.491-1.993v0c0.071-0.215 0.093-0.395 0.065-0.541v0c-2.673 2.027-4.377 3.336-5.113 3.927v0c-4.815 3.999-7.667 6.385-8.554 7.156zM16.719 204.747l0.1-0.085z" fill="#fe0039" data-fill-palette-color="primary"></path><path d="M79.189 271.321v0c-0.733 0.152-1.458 0.077-2.174-0.224-0.723-0.303-1.19-0.687-1.402-1.151-0.218-0.467-0.265-0.848-0.141-1.143v0c0.169-0.403 0.39-0.687 0.661-0.851v0c0.18 0.324 0.478 0.573 0.894 0.747v0c0.717 0.3 1.401 0.102 2.055-0.594v0l2.374-5.662c0.228-0.544 0.281-0.984 0.159-1.322v0c-0.178-0.526-0.642-1.213-1.392-2.062v0c1.03-0.035 1.712-0.117 2.045-0.248v0c0.575-0.24 0.986-0.655 1.233-1.244v0l4.378-10.442c0.588-1.401 0.309-2.342-0.837-2.822v0c-0.416-0.174-0.804-0.217-1.165-0.127v0c-0.07-0.3-0.051-0.578 0.056-0.834 0.105-0.25 0.271-0.466 0.498-0.649 0.225-0.177 0.513-0.308 0.865-0.394v0c0.757-0.172 1.576-0.073 2.459 0.298 0.883 0.37 1.548 0.713 1.995 1.028v0c1.035-0.567 1.978-0.671 2.829-0.314v0c1.267 0.531 1.621 1.462 1.063 2.793v0l-6.475 15.442 7.401-2.686c1.164-0.497 1.822-0.929 1.975-1.293 0.156-0.371-0.003-0.656-0.477-0.855-0.467-0.196-0.95-0.263-1.45-0.202v0c-0.043-0.274 0.009-0.587 0.157-0.938 0.148-0.352 0.473-0.618 0.978-0.798 0.511-0.177 1.105-0.123 1.783 0.161 0.678 0.284 1.185 0.745 1.519 1.382v0c0.657-0.221 1.27-0.212 1.84 0.027 0.563 0.236 0.986 0.609 1.268 1.118v0c0.555-0.158 1.118-0.118 1.688 0.121 0.563 0.236 0.97 0.584 1.221 1.043 0.248 0.45 0.268 0.921 0.062 1.413v0c-0.19 0.454-0.383 0.742-0.577 0.865v0c-0.193-0.472-0.533-0.81-1.019-1.015-0.486-0.204-0.909-0.298-1.269-0.283-0.36 0.015-0.774 0.078-1.242 0.19-0.465 0.121-0.994 0.279-1.587 0.474v0l-4.176 1.375 0.99 13.437c0.031 0.878 0.108 1.546 0.231 2.004 0.117 0.455 0.381 0.769 0.791 0.941 0.416 0.174 0.802 0.212 1.159 0.114v0c0.073 0.309 0.036 0.64-0.111 0.992-0.145 0.345-0.46 0.604-0.946 0.776-0.486 0.172-1.11 0.099-1.871-0.22-0.761-0.319-1.41-0.836-1.946-1.549v0c-0.757 0.172-1.484 0.111-2.181-0.181-0.691-0.29-1.219-0.726-1.584-1.308v0c-0.633 0.163-1.247 0.12-1.842-0.129-0.595-0.249-1.011-0.593-1.249-1.031-0.238-0.438-0.264-0.878-0.079-1.32 0.185-0.441 0.404-0.703 0.657-0.785v0c0.327 0.566 0.781 0.828 1.363 0.786v0c0.21-0.017 0.434-0.119 0.67-0.306v0l-0.346-10.155-3.149 1.05-2.615 6.238c-0.022 0.698 0.239 1.161 0.783 1.389v0c0.282 0.118 0.612 0.129 0.99 0.032v0c0.112 0.235 0.074 0.577-0.113 1.024-0.188 0.448-0.517 0.739-0.987 0.873-0.476 0.131-1.015 0.071-1.616-0.181-0.608-0.255-1.075-0.665-1.402-1.231v0c-0.652 0.155-1.323 0.088-2.015-0.202-0.691-0.29-1.243-0.75-1.655-1.382zM84.968 261.873l0.463-1.104 1.049-2.449 1.517-3.618c0.96-2.291 1.478-3.642 1.553-4.054v0c0.144-0.827 0.05-1.484-0.28-1.969v0l-2.608 6.219c-1.068 2.546-1.692 3.955-1.873 4.225-0.178 0.264-0.312 0.456-0.4 0.577v0c-0.276 0.336-0.827 0.473-1.651 0.414v0c0.628 0.564 0.919 1.047 0.871 1.448v0c-0.1 0.65-0.584 2.012-1.454 4.085v0l-0.503 1.2c0.83-0.149 1.637-1.115 2.423-2.9v0l0.463-1.104c0.168-0.366 0.312-0.689 0.43-0.97zM93.105 263.028l0.261 8.742c0.246-0.138 0.444-0.386 0.594-0.744 0.15-0.358 0.256-0.69 0.316-0.996 0.06-0.306 0.108-0.617 0.143-0.933v0c0.033-0.528 0.028-1.169-0.016-1.925v0l-0.163-4.537z" fill="#fe0039" data-fill-palette-color="primary"></path><path d="M182.356 252.349v0c-0.638 0.234-1.316 0.29-2.033 0.168-0.723-0.119-1.344-0.402-1.862-0.848v0c-0.551-0.456-1.162-0.731-1.831-0.825v0c-0.207-0.02-0.443-0.041-0.71-0.062v0l0.502-0.627c0.461-0.597 0.736-1.219 0.825-1.864 0.091-0.639 0.374-1.219 0.848-1.74 0.465-0.525 1.037-0.911 1.714-1.16v0c1.401-0.513 2.633-0.295 3.696 0.653v0c0.707 0.62 1.576 0.956 2.608 1.007v0c-0.148 0.18-0.297 0.349-0.446 0.507-0.151 0.151-0.287 0.316-0.407 0.492v0c-0.274 0.381-0.462 0.867-0.564 1.459-0.101 0.591-0.357 1.154-0.767 1.688-0.41 0.534-0.935 0.918-1.573 1.152zM180.515 250.408c-0.119-0.104-0.235-0.239-0.348-0.405-0.112-0.166-0.253-0.48-0.422-0.942-0.169-0.463-0.146-1.136 0.069-2.021v0c-0.463 0.169-0.757 0.373-0.884 0.612-0.129 0.232-0.217 0.427-0.263 0.584-0.048 0.151-0.087 0.298-0.115 0.441-0.026 0.15-0.063 0.311-0.111 0.484v0c-0.111 0.425-0.231 0.701-0.361 0.83v0c0.243 0.037 0.494 0.148 0.754 0.334 0.258 0.179 0.549 0.36 0.875 0.544v0c0.489 0.286 1.007 0.329 1.554 0.129v0c-0.122-0.111-0.246-0.209-0.374-0.295-0.121-0.089-0.246-0.187-0.374-0.295zM189.498 277.673v0c-0.434 0.61-1.016 1.048-1.746 1.315-0.736 0.269-1.34 0.306-1.811 0.108-0.478-0.195-0.771-0.442-0.881-0.741v0c-0.15-0.41-0.182-0.768-0.093-1.074v0c0.352 0.115 0.799 0.073 1.339-0.124 0.534-0.196 0.868-0.717 1.002-1.564v0l-2.193-5.99c-0.203-0.554-0.463-0.913-0.782-1.077v0c-0.497-0.247-1.302-0.428-2.416-0.545v0c0.732-0.726 1.175-1.25 1.33-1.573v0c0.258-0.567 0.277-1.151 0.057-1.75v0l-1.005-2.746c-0.389-1.062-0.963-1.502-1.724-1.32v0c-0.218 0.05-0.49 0.135-0.816 0.255-0.326 0.119-0.591 0.334-0.794 0.645v0c-0.255-0.173-0.431-0.389-0.526-0.65-0.093-0.254-0.133-0.565-0.119-0.931 0.013-0.367 0.104-0.744 0.273-1.131v0c0.403-0.916 1.032-1.53 1.885-1.843 0.853-0.312 1.677-0.444 2.471-0.394v0c0.326-1.028 0.883-1.686 1.671-1.975v0c1.29-0.472 2.183-0.031 2.679 1.324v0l2.358 6.44c0.219 0.599 0.508 0.985 0.866 1.157v0c0.532 0.241 1.311 0.403 2.339 0.485v0c-0.775 0.808-1.236 1.376-1.383 1.703v0c-0.211 0.513-0.215 1.047-0.012 1.6v0l2.214 6.049c0.654 0.514 1.244 0.675 1.772 0.482 0.528-0.193 0.889-0.447 1.084-0.762v0c0.264 0.177 0.462 0.444 0.593 0.802 0.129 0.352 0.074 0.756-0.165 1.213-0.233 0.455-0.707 0.813-1.424 1.076-0.717 0.262-1.454 0.307-2.212 0.133v0c-0.369 0.586-0.915 1.011-1.638 1.276-0.73 0.267-1.46 0.309-2.193 0.126zM187.858 268.166c-0.148-0.426-0.272-0.783-0.37-1.072-0.098-0.289-0.18-0.522-0.245-0.698v0l-0.186-0.508c-0.069-0.189-0.162-0.432-0.278-0.729-0.116-0.297-0.244-0.627-0.384-0.99-0.14-0.362-0.281-0.717-0.423-1.064v0c-0.36-0.843-0.639-1.413-0.837-1.711v0c-0.417-0.675-0.887-1.072-1.411-1.19v0l0.448 1.222c0.775 2.117 1.181 3.376 1.216 3.777 0.045 0.405-0.004 0.736-0.146 0.995-0.142 0.259-0.386 0.529-0.733 0.811v0c0.845-0.014 1.385 0.151 1.621 0.493v0c0.376 0.542 0.951 1.872 1.726 3.989v0l0.447 1.222c0.437-0.581 0.482-1.469 0.133-2.664v0c-0.235-0.823-0.428-1.45-0.578-1.883z" fill="#fe0039" data-fill-palette-color="primary"></path><path d="M264.846 213.568v0c0.136 0.736 0.045 1.462-0.274 2.178-0.321 0.723-0.719 1.173-1.192 1.35-0.477 0.168-0.868 0.184-1.171 0.048v0c-0.406-0.18-0.671-0.378-0.796-0.593v0c0.328-0.173 0.583-0.466 0.766-0.878v0c0.347-0.78 0.195-1.455-0.455-2.024v0l-5.706-2.536c-0.539-0.24-0.981-0.296-1.326-0.168v0c-0.524 0.154-1.218 0.597-2.083 1.329v0c-0.013-1.031-0.081-1.714-0.205-2.05v0c-0.228-0.58-0.634-0.999-1.217-1.258v0l-2.672-1.188c-1.033-0.459-1.749-0.352-2.147 0.321v0c-0.116 0.192-0.244 0.446-0.385 0.763-0.141 0.317-0.17 0.657-0.089 1.02v0c-0.301 0.063-0.579 0.039-0.833-0.074-0.247-0.11-0.498-0.297-0.752-0.562-0.254-0.265-0.465-0.586-0.631-0.964v0c-0.372-0.94-0.369-1.834 0.009-2.684 0.375-0.843 0.821-1.488 1.338-1.934v0c-0.456-1.007-0.513-1.895-0.173-2.661v0c0.558-1.255 1.496-1.59 2.815-1.004v0l1.504 0.691c-1.173-1.751-1.617-3.657-1.331-5.716v0c0.094-0.672 0.281-1.325 0.563-1.959v0c0.64-1.439 1.519-2.479 2.639-3.121 1.114-0.644 2.402-0.887 3.867-0.73v0c-1.481-1.759-2.058-3.792-1.731-6.099v0c0.099-0.753 0.338-1.554 0.715-2.404 0.378-0.85 0.894-1.577 1.55-2.18 0.656-0.604 1.399-1.037 2.229-1.299v0c1.713-0.506 3.667-0.272 5.86 0.703v0l1.201 0.602c0.583 0.259 1.063 0.317 1.438 0.172v0c0.54-0.208 1.197-0.652 1.971-1.333v0c0.039 1.126 0.132 1.854 0.281 2.186v0c0.222 0.509 0.602 0.883 1.141 1.122v0l5.706 2.536c0.859 0.101 1.461-0.239 1.808-1.018v0c0.13-0.292 0.15-0.62 0.062-0.986v0c0.132-0.025 0.264-0.065 0.396-0.121 0.135-0.046 0.354-0.002 0.658 0.133 0.304 0.135 0.553 0.439 0.745 0.912 0.186 0.47 0.123 1.057-0.19 1.761-0.31 0.697-0.791 1.258-1.443 1.682v0c0.142 0.723 0.062 1.424-0.24 2.103-0.299 0.672-0.743 1.184-1.332 1.537v0c0.15 0.636 0.094 1.249-0.168 1.838-0.265 0.596-0.627 1.001-1.086 1.215-0.462 0.22-0.978 0.203-1.549-0.051v0c-0.266-0.118-0.438-0.305-0.515-0.559v0c0.34-0.183 0.571-0.414 0.695-0.693v0c0.24-0.539 0.112-1.055-0.382-1.548v0l-10.898-4.844c-2.866-1.274-4.762-0.868-5.689 1.218v0c-0.265 0.596-0.175 1.334 0.268 2.215v0c0.425 0.872 1.087 1.611 1.988 2.216v0l11.643 5.243c0.697 0.037 1.166-0.214 1.405-0.753v0c0.124-0.279 0.14-0.606 0.049-0.981v0c0.24-0.113 0.57-0.077 0.988 0.109 0.418 0.186 0.701 0.524 0.847 1.014 0.149 0.484 0.092 1.024-0.173 1.62-0.268 0.602-0.688 1.061-1.261 1.376v0c0.13 0.68 0.048 1.354-0.248 2.019-0.296 0.666-0.739 1.175-1.328 1.528v0c0.15 0.636 0.094 1.249-0.169 1.838-0.262 0.59-0.624 0.994-1.086 1.215-0.462 0.22-0.978 0.203-1.549-0.051v0c-0.266-0.118-0.438-0.305-0.514-0.559v0c0.34-0.183 0.571-0.414 0.695-0.693v0c0.24-0.539 0.113-1.058-0.378-1.558v0l-10.899-4.844c-2.282-1.014-3.889-1.064-4.819-0.149v0c-0.304 0.29-0.55 0.648-0.738 1.073v0c-0.363 0.818-0.323 1.683 0.122 2.594v0c0.402 0.854 1.072 1.577 2.009 2.168v0l11.632 5.216c0.7 0.03 1.169-0.221 1.406-0.753v0c0.127-0.285 0.144-0.615 0.052-0.991v0c0.273-0.137 0.616-0.113 1.029 0.07 0.406 0.18 0.679 0.522 0.819 1.025 0.138 0.509 0.073 1.065-0.194 1.668-0.268 0.602-0.679 1.057-1.233 1.365v0c0.132 0.643 0.048 1.301-0.251 1.972-0.299 0.672-0.768 1.207-1.408 1.607zM258.858 181.764v0c1.051 0.027 2.87 0.615 5.457 1.764v0l6.961 3.094c0.042-0.71-0.604-1.4-1.939-2.069v0c-1.338-0.678-2.534-1.251-3.586-1.719-1.059-0.471-1.953-0.834-2.682-1.089-0.738-0.252-1.375-0.417-1.909-0.496v0c-0.959-0.13-1.727 0.041-2.302 0.515zM253.448 193.936v0c1.048 0.033 2.866 0.625 5.452 1.774v0l6.962 3.094c0.042-0.71-0.604-1.4-1.939-2.069v0c-1.336-0.685-2.53-1.261-3.582-1.728-1.059-0.471-1.954-0.831-2.686-1.08-0.738-0.252-1.375-0.417-1.91-0.496v0c-0.957-0.137-1.722 0.032-2.297 0.505zM259.263 210.448l1.188 0.529c-0.108-0.731-0.726-1.389-1.855-1.975v0c-0.852-0.44-1.627-0.814-2.325-1.125v0l-2.32-1.031c-1.807-0.803-2.988-1.271-3.544-1.404v0c-0.951-0.218-1.66-0.176-2.128 0.124v0l1.189 0.529c2.06 0.916 3.247 1.5 3.56 1.753 0.322 0.249 0.53 0.516 0.623 0.801 0.094 0.285 0.121 0.65 0.082 1.096v0c0.578-0.616 1.065-0.893 1.463-0.831v0c0.651 0.107 2.007 0.619 4.067 1.534z" fill="#fe0039" data-fill-palette-color="primary"></path></g></svg></g></svg></g></svg></g><g></g></svg></g><defs></defs></svg><rect width="280" height="280" fill="none" stroke="none" visibility="hidden"></rect></g></svg></g></svg>